<svg xmlns="http://www.w3.org/2000/svg" xmlns:xlink="http://www.w3.org/1999/xlink" viewBox="0 0 200 200"><defs><style>.cls-1{fill:url(#Безымянный_градиент_592);}.cls-2{fill:url(#Безымянный_градиент_592-2);}.cls-3{fill:url(#Безымянный_градиент_592-3);}.cls-4{fill:url(#Безымянный_градиент_592-4);}.cls-5{fill:url(#Безымянный_градиент_592-5);}.cls-6{fill:url(#Безымянный_градиент_636);}</style><linearGradient id="Безымянный_градиент_592" x1="98.25" y1="101.01" x2="98.25" y2="99.85" gradientUnits="userSpaceOnUse"><stop offset="0" stop-color="#009fe3"/><stop offset="1" stop-color="#312783"/></linearGradient><linearGradient id="Безымянный_градиент_592-2" x1="99.15" y1="101.01" x2="99.15" y2="99.85" xlink:href="#Безымянный_градиент_592"/><linearGradient id="Безымянный_градиент_592-3" x1="100.08" y1="101.01" x2="100.08" y2="99.85" xlink:href="#Безымянный_градиент_592"/><linearGradient id="Безымянный_градиент_592-4" x1="101.48" y1="101.01" x2="101.48" y2="99.85" xlink:href="#Безымянный_градиент_592"/><linearGradient id="Безымянный_градиент_592-5" x1="102.94" y1="101.01" x2="102.94" y2="99.85" xlink:href="#Безымянный_градиент_592"/><linearGradient id="Безымянный_градиент_636" x1="74.55" y1="99.98" x2="125.45" y2="99.98" gradientUnits="userSpaceOnUse"><stop offset="0" stop-color="#009fe3"/><stop offset="1" stop-color="#004d9d"/></linearGradient></defs><g id="favicon"><path class="cls-1" d="M97.64,100.4a.55.55,0,0,0,.54.61h.67v-.2h-.67s-.33,0-.33-.41a.33.33,0,0,1,.33-.35h.67v-.2h-.67A.53.53,0,0,0,97.64,100.4Z"/><rect class="cls-2" x="99.05" y="99.85" width="0.21" height="1.16"/><path class="cls-3" d="M100.54,100.4a.28.28,0,0,0,.12-.2.33.33,0,0,0-.34-.35h-.86V101h.86s.39,0,.39-.35A.27.27,0,0,0,100.54,100.4Zm-.22.41h-.66v-.76h.66s.15,0,.15.13a.13.13,0,0,1-.15.15h-.5v.17h.5s.18,0,.18.16S100.32,100.81,100.32,100.81Z"/><path class="cls-4" d="M101.9,100.7l-.84-.83a.15.15,0,0,0-.08,0c-.12,0-.12.09-.12.09V101h.2v-.85l.84.82s0,0,.09,0,.11-.09.11-.09V99.85h-.2Z"/><path class="cls-5" d="M103.08,99.94a.16.16,0,0,0-.14-.09.14.14,0,0,0-.14.09l-.63,1.07h.25l.52-.9.52.9h.26Z"/><path id="одной_фигурой" data-name="одной фигурой" class="cls-6" d="M109.34,107.2l1.89,2.17,5.71-3.8a5.72,5.72,0,1,0-.52-9.65l-5.88-3.57-1.92,2.19,5.94,3.6a5.8,5.8,0,0,0-.37,1h-5.92a7.94,7.94,0,0,0-1.78-3.74L107.74,94l1.92-2.18,3-3.37a7,7,0,0,0,3.18.77,7.1,7.1,0,1,0-5.43-2.54l-3.19,3.63-1.91,2.18-1,1.12a8,8,0,0,0-3.86-1,7.49,7.49,0,0,0-1.17.1l-1.49-3.44a5.83,5.83,0,0,0,.93-.78l5.68,3.45,1.92-2.19L100.12,86A5.9,5.9,0,1,0,90,88.19L84.9,94.38a7,7,0,1,0,0,12.4L90,113a5.9,5.9,0,1,0,10.33,3.89c0-.08,0-.16,0-.23l6.75-4.51L105.21,110l-5.74,3.83a5.82,5.82,0,0,0-1.58-1.7l1.43-3.64a7.61,7.61,0,0,0,5.06-1l1.73,2,1.89,2.18,2.18,2.51A6.84,6.84,0,0,0,115.79,125a6.85,6.85,0,1,0,0-13.7,6.79,6.79,0,0,0-3.51,1l-1.88-2.16-1.89-2.18-1.94-2.23a8,8,0,0,0,1.7-3.65h5.92a5.54,5.54,0,0,0,.65,1.52Zm6.45-29.33a4.24,4.24,0,1,1-4.23,4.23A4.23,4.23,0,0,1,115.79,77.87Zm4,40.23a4,4,0,1,1-4-4A4,4,0,0,1,119.79,118.1Zm2.8-17.52a2.86,2.86,0,1,1-2.86-2.86A2.87,2.87,0,0,1,122.59,100.58Zm-26.06-7a8,8,0,0,0-4,5.54h-4.1a7,7,0,0,0-1.38-2.93l5.22-6.36a5.92,5.92,0,0,0,2.15.41,6.08,6.08,0,0,0,.61,0ZM94.46,81.33a3,3,0,1,1-3,3A3,3,0,0,1,94.46,81.33Zm-17,19.25a4.18,4.18,0,1,1,4.17,4.17A4.17,4.17,0,0,1,77.41,100.58Zm17,19.37a3,3,0,1,1,3-3A3,3,0,0,1,94.46,120Zm.78-8.88a5.12,5.12,0,0,0-.78-.06,5.9,5.9,0,0,0-2.07.38l-5.3-6.45A7,7,0,0,0,88.47,102h4.1a8,8,0,0,0,4,5.58Zm.05-10.49a5.13,5.13,0,1,1,5.13,5.12A5.13,5.13,0,0,1,95.29,100.58Z"/></g></svg>