<?xml version="1.0" encoding="UTF-8"?>
<svg id="LOGO_Beidge" data-name="LOGO Beidge" xmlns="http://www.w3.org/2000/svg" viewBox="0 0 200 200">
  <defs>
    <style>
      .cls-1 {
        fill: #f0f0f0;
      }
    </style>
  </defs>
  <path id="C" class="cls-1" d="M89.2,90h-11.53s-9.31.08-9.28,9.48,7.32,10.51,9.28,10.51h11.53v-3.45h-11.53s-5.7,0-5.7-7.06c0-6.03,5.7-6.03,5.7-6.03h11.53v-3.44Z"/>
  <rect id="I" class="cls-1" x="92.6" y="90" width="3.65" height="19.99"/>
  <path id="B" class="cls-1" d="M118.44,99.47s1.98-1.39,1.98-3.41c0-4.37-3.18-6.07-5.84-6.07h-14.75l-.09,19.99h14.85s6.68.5,6.68-5.97c0-3.42-2.82-4.54-2.82-4.54ZM114.58,106.53h-11.32v-13.1h11.32s2.6-.06,2.6,2.33c0,2.86-2.6,2.55-2.6,2.55h-8.67v2.96h8.67s3.16-.25,3.16,2.74c0,2.71-3.16,2.52-3.16,2.52Z"/>
  <path id="N" class="cls-1" d="M123.95,109.99v-18.35s0-1.64,1.97-1.64c.72,0,1.16.18,1.43.44,3.72,3.43,14.43,14.2,14.43,14.2v-14.64h3.57v18.53s0,1.46-1.9,1.46c-1.21,0-1.67-.47-1.67-.47l-14.43-14.22v14.68h-3.4Z"/>
  <path id="A" class="cls-1" d="M146.56,109.99l10.86-18.35s.54-1.64,2.33-1.64,2.43,1.64,2.43,1.64l11.05,18.35h-4.48l-9-15.4-8.96,15.4h-4.23Z"/>
  <path id="_одной_фигурой" data-name="одной фигурой" class="cls-1" d="M47.16,105.05l1.33,1.53,4-2.67c.58.32,1.24.51,1.95.51,2.21,0,4.01-1.8,4.01-4.01s-1.8-4.01-4.01-4.01c-.86,0-1.66.28-2.32.74l-4.12-2.5-1.34,1.53,4.16,2.52c-.11.23-.19.46-.26.71h-4.15c-.18-.99-.62-1.89-1.25-2.62l.88-1,1.34-1.53,2.07-2.36c.67.34,1.43.53,2.23.53,2.74,0,4.97-2.23,4.97-4.97s-2.23-4.97-4.97-4.97-4.97,2.23-4.97,4.97c0,1.21.44,2.33,1.16,3.19l-2.23,2.55-1.34,1.53-.69.78c-.8-.44-1.72-.7-2.7-.7-.28,0-.55.03-.82.07l-1.04-2.41c.24-.16.45-.34.65-.55l3.98,2.42,1.34-1.53-4.32-2.62c.1-.36.16-.74.16-1.14,0-2.28-1.85-4.13-4.13-4.13s-4.13,1.86-4.13,4.13c0,1.02.38,1.96.99,2.68l-3.56,4.34c-.69-.37-1.48-.58-2.32-.58-2.72,0-4.93,2.21-4.93,4.93s2.21,4.93,4.93,4.93c.84,0,1.63-.21,2.32-.58l3.59,4.38c-.64.73-1.03,1.68-1.03,2.72,0,2.28,1.85,4.13,4.13,4.13s4.13-1.86,4.13-4.13c0-.05,0-.11,0-.16l4.74-3.16-1.33-1.53-4.02,2.68c-.29-.47-.66-.87-1.11-1.19l1-2.55c.25.03.51.06.77.06,1.01,0,1.96-.27,2.78-.74l1.21,1.39,1.33,1.53,1.53,1.76c-.55.78-.87,1.73-.87,2.75,0,2.65,2.15,4.8,4.8,4.8s4.8-2.15,4.8-4.8-2.15-4.8-4.8-4.8c-.9,0-1.74.25-2.47.69l-1.32-1.51-1.33-1.53-1.36-1.56c.6-.72,1.01-1.6,1.19-2.56h4.15c.1.38.25.74.45,1.07l-3.85,2.57ZM51.68,84.5c1.64,0,2.97,1.33,2.97,2.97s-1.33,2.97-2.97,2.97-2.97-1.33-2.97-2.97,1.33-2.97,2.97-2.97ZM54.47,112.69c0,1.54-1.26,2.8-2.8,2.8s-2.8-1.26-2.8-2.8,1.26-2.8,2.8-2.8,2.8,1.26,2.8,2.8ZM56.44,100.41c0,1.11-.9,2-2,2s-2-.9-2-2,.9-2,2-2,2,.9,2,2ZM38.18,95.52c-1.43.8-2.47,2.21-2.78,3.88h-2.87c-.16-.76-.5-1.46-.97-2.05l3.66-4.46c.47.18.97.29,1.51.29.15,0,.29,0,.43-.02l1.02,2.36ZM36.72,86.92c1.17,0,2.13.96,2.13,2.13s-.96,2.13-2.13,2.13-2.13-.96-2.13-2.13.96-2.13,2.13-2.13ZM24.78,100.41c0-1.61,1.31-2.92,2.92-2.92s2.92,1.31,2.92,2.92-1.31,2.92-2.92,2.92-2.92-1.31-2.92-2.92ZM36.72,113.98c-1.17,0-2.13-.96-2.13-2.13s.96-2.13,2.13-2.13,2.13.96,2.13,2.13-.96,2.13-2.13,2.13ZM37.27,107.76c-.18-.02-.36-.04-.54-.04-.51,0-1,.1-1.45.27l-3.71-4.52c.47-.59.81-1.29.97-2.05h2.87c.31,1.69,1.37,3.11,2.83,3.91l-.96,2.44ZM37.31,100.41c0-1.98,1.61-3.59,3.59-3.59s3.59,1.61,3.59,3.59-1.61,3.59-3.59,3.59-3.59-1.61-3.59-3.59Z"/>
</svg>